<svg width="537" height="150" viewBox="0 0 537 150" fill="none" xmlns="http://www.w3.org/2000/svg">
<path d="M187.747 104.748V24.4011C187.747 23.6363 188.135 23.2539 188.909 23.2539H193.515C197.302 23.2539 200.545 24.5852 203.242 27.2479C205.939 29.9105 207.288 33.1255 207.288 36.8929V47.0903H228.808C229.583 47.0903 229.97 47.4727 229.97 48.2375V59.5821C229.97 61.4516 229.296 63.052 227.947 64.3833C226.599 65.7147 224.978 66.3803 223.084 66.3803H207.288V104.748C207.288 108.487 208.235 111.249 210.129 113.033C212.166 114.988 215.279 115.965 219.468 115.965C223.17 115.965 226.054 115.186 228.12 113.628C228.493 113.345 228.894 113.302 229.325 113.501C229.755 113.699 229.97 114.039 229.97 114.52V132.961C229.97 133.556 229.683 133.924 229.11 134.065C226.068 134.859 222.854 135.255 219.468 135.255C210.085 135.255 202.467 132.465 196.614 126.885C190.703 121.276 187.747 113.897 187.747 104.748Z" fill="black"/>
<path d="M327.624 49.4272V133.216C327.624 133.98 327.237 134.363 326.462 134.363H321.857C316.376 134.363 312.33 131.969 309.719 127.182C302.459 133.357 293.823 136.445 283.808 136.445C271.183 136.445 260.409 132.04 251.485 123.231C242.561 114.421 238.099 103.785 238.099 91.3214C238.099 78.8579 242.561 68.2215 251.485 59.4121C260.409 50.6027 271.183 46.198 283.808 46.198C293.823 46.198 302.459 49.2855 309.719 55.4606C312.33 50.6735 316.376 48.28 321.857 48.28H326.462C327.237 48.28 327.624 48.6624 327.624 49.4272ZM265.301 73.0511C260.193 78.0931 257.64 84.1833 257.64 91.3214C257.64 98.4596 260.193 104.55 265.301 109.592C270.408 114.634 276.578 117.155 283.808 117.155C291.039 117.155 297.209 114.634 302.316 109.592C307.424 104.55 309.977 98.4596 309.977 91.3214C309.977 84.1833 307.424 78.0931 302.316 73.0511C297.209 68.0091 291.039 65.4881 283.808 65.4881C276.578 65.4881 270.408 68.0091 265.301 73.0511Z" fill="black"/>
<path d="M348.167 133.216V17.3054C348.167 16.5406 348.554 16.1582 349.329 16.1582H366.545C367.32 16.1582 367.707 16.5406 367.707 17.3054V54.1435C374.651 48.8465 382.743 46.198 391.982 46.198C404.608 46.198 415.382 50.6027 424.306 59.4121C433.23 68.2215 437.692 78.8579 437.692 91.3214C437.692 103.785 433.23 114.421 424.306 123.231C415.382 132.04 404.608 136.445 391.982 136.445C381.94 136.445 373.303 133.357 366.072 127.182C363.461 131.969 359.415 134.363 353.934 134.363H349.329C348.554 134.363 348.167 133.98 348.167 133.216ZM391.982 65.4881C384.752 65.4881 378.582 68.0091 373.475 73.0511C368.367 78.0931 365.814 84.1833 365.814 91.3214C365.814 98.4596 368.367 104.55 373.475 109.592C378.582 114.634 384.752 117.155 391.982 117.155C399.213 117.155 405.382 114.634 410.49 109.592C415.597 104.55 418.151 98.4596 418.151 91.3214C418.151 84.1833 415.597 78.0931 410.49 73.0511C405.382 68.0091 399.213 65.4881 391.982 65.4881Z" fill="black"/>
<path d="M536.901 49.4272V133.216C536.901 133.98 536.513 134.363 535.739 134.363H531.133C525.653 134.363 521.607 131.969 518.996 127.182C511.736 133.357 503.099 136.445 493.085 136.445C480.46 136.445 469.685 132.04 460.762 123.231C451.838 114.421 447.376 103.785 447.376 91.3214C447.376 78.8579 451.838 68.2215 460.762 59.4121C469.685 50.6027 480.46 46.198 493.085 46.198C503.099 46.198 511.736 49.2855 518.996 55.4606C521.607 50.6735 525.653 48.28 531.133 48.28H535.739C536.513 48.28 536.901 48.6624 536.901 49.4272ZM474.578 73.0511C469.47 78.0931 466.916 84.1833 466.916 91.3214C466.916 98.4596 469.47 104.55 474.578 109.592C479.685 114.634 485.854 117.155 493.085 117.155C500.316 117.155 506.485 114.634 511.593 109.592C516.7 104.55 519.254 98.4596 519.254 91.3214C519.254 84.1833 516.7 78.0931 511.593 73.0511C506.485 68.0091 500.316 65.4881 493.085 65.4881C485.854 65.4881 479.685 68.0091 474.578 73.0511Z" fill="black"/>
<path d="M38.3931 19.1469C38.3931 29.7215 29.8208 38.2939 19.2462 38.2939C8.67162 38.2939 0.0992432 29.7215 0.0992432 19.1469C0.0992432 8.57238 8.67162 0 19.2462 0C29.8208 0 38.3931 8.57238 38.3931 19.1469Z" fill="#097C30"/>
<path d="M50.3483 19.1469C50.3483 8.57238 58.9207 0 69.4953 0L138.424 0C148.999 0 157.571 8.57238 157.571 19.1469C157.571 29.7215 148.999 38.2939 138.424 38.2939H69.4953C58.9207 38.2939 50.3483 29.7215 50.3483 19.1469Z" fill="#097C30"/>
<path d="M50.3483 75C50.3483 64.4254 58.9207 55.8531 69.4953 55.8531H108.163C118.737 55.8531 127.31 64.4254 127.31 75C127.31 85.5746 118.737 94.1469 108.163 94.1469H69.4953C58.9207 94.1469 50.3483 85.5746 50.3483 75Z" fill="#7FBA28"/>
<path d="M50.3483 130.853C50.3483 120.278 58.9207 111.706 69.4953 111.706H86.8676C97.4422 111.706 106.015 120.278 106.015 130.853C106.015 141.428 97.4422 150 86.8676 150H69.4953C58.9207 150 50.3483 141.428 50.3483 130.853Z" fill="#B6CD01"/>
</svg>
